<svg height="512" viewBox="0 0 60 60" width="512" xmlns="http://www.w3.org/2000/svg"><g id="Page-1" fill="none" fill-rule="evenodd"><g id="009---Coffee" fill="rgb(0,0,0)" fill-rule="nonzero"><path id="Shape" d="m49 6c-3.1106775-.15383744-6.0647191 1.37319362-7.738 4h-1.289c-.1073832-.06978696-.221243-.12906104-.34-.177l-29.317-9.772c-.33256711-.10983922-.6983615-.0376858-.96430968.19021133-.26594817.22789713-.39328656.57832057-.33569032.92378867l1.863 11.181c-.5490176.3715779-.8782344.9910597-.879 1.654v4c0 1.1045695.8954305 2 2 2h.142c-6.40675118 4.0357799-10.73586008 10.6639856-11.85607592 18.1525834-1.12021585 7.4885978 1.07977089 15.0934879 6.02507592 20.8274166.56945465.6532221 1.39542887 1.0256774 2.262 1.02h34.854c.8665711.0056774 1.6925454-.3667779 2.262-1.02 4.945305-5.7339287 7.1452918-13.3388188 6.0250759-20.8274166-1.1202158-7.4885978-5.4493247-14.1168035-11.8560759-18.1525834h.142c1.1045695 0 2-.8954305 2-2 2.3559363-.0260998 4.5285413-1.2762474 5.735-3.3.505-.7.505-.7 1.265-.7 1.384 0 3 3.928 3 15 0 2.209139 1.790861 4 4 4s4-1.790861 4-4c0-7.465 0-23-11-23zm-10 5.721v.279h-26.153l-1.587-9.526zm5.176 45.953c-.1905582.2121694-.4638649.3311253-.749.326h-34.854c-.28513509.0051253-.55844177-.1138306-.749-.326-6.39810541-7.4143007-7.64361772-17.9746298-3.146-26.674h42.644c4.4976177 8.6993702 3.2521054 19.2596993-3.146 26.674zm2-28.674h-40.353c2.55733688-3.9756107 6.232597-7.1067487 10.564-9h19.226c4.331403 1.8932513 8.0066631 5.0243893 10.564 9zm-10.356-11h-23.82v-4h28v4zm20.18 13c-1.1045695 0-2-.8954305-2-2 0-11.6-1.589-17-5-17-1.1975486-.1491276-2.3592036.4721576-2.9 1.551-.8301932 1.4909712-2.3936493 2.4248503-4.1 2.449v-2c-.002145-.7113268-.3832487-1.3675874-1-1.722v-.278h.76c.2999875-.0000455.5841079-.1347641.774-.367.076-.093.159-.2.238-.312l.082-.11c1.2959022-2.12595673 3.6607619-3.36148625 6.146-3.211 9 0 9 14.184 9 21 0 1.1045695-.8954305 2-2 2z"/></g></g></svg>