<svg height="512" viewBox="0 0 60 45" width="512" xmlns="http://www.w3.org/2000/svg"><g id="Page-1" fill="none" fill-rule="evenodd"><g id="023---Croissant" fill="rgb(0,0,0)" fill-rule="nonzero"><path id="Shape" d="m59.886 27.384c-1.028-10.671-6.435-16.184-11.045-18.984.032-.154.068-.321.1-.463.2631489-1.27282214-.2755433-2.57756631-1.36-3.294-2.646-1.732-8.445-4.643-17.581-4.643s-14.935 2.911-17.578 4.646c-1.0845153.71591476-1.6232839 2.02044783-1.36 3.293.028.142.064.31.1.465-4.613 2.796-10.02 8.309-11.048 18.987-.11890369 1.20986.49898135 2.3731231 1.568 2.952-.42533592 1.8564888-.65393052 3.7526173-.682 5.657 0 5.467 2.355 9 6 9 3.563 0 4.171-2.492 4.815-5.129l.155-.627c.4099608-1.5948807.9861143-3.1423505 1.719-4.617.1735084.0323223.3495141.0493875.526.051.8685972.0021544 1.695229-.3733882 2.265-1.029 1.2973639-1.4099637 2.9516978-2.4430586 4.788-2.99.437.5.89.994 1.361 1.468.5589126.5580782 1.3161686.8719835 2.106.873h10.53c.7898314-.0010165 1.5470874-.3149218 2.106-.873.471-.474.924-.965 1.361-1.468 1.8392243.5482793 3.4953333 1.5850754 4.792 3 .5689322.6522068 1.3935308 1.0245355 2.259 1.02.1767602-.0018172.353052-.0185431.527-.05.7332541 1.4749465 1.3097427 3.0227516 1.72 4.618l.155.628c.644 2.633 1.253 5.125 4.815 5.125 3.645 0 6-3.533 6-9-.0280729-1.9040524-.2566679-3.7998491-.682-5.656 1.0711024-.5808312 1.689168-1.7475877 1.568-2.96zm-49.856 11.373-.157.639c-.673 2.738-.973 3.604-2.873 3.604-2.467 0-4-2.682-4-7 .02312283-1.6429996.21106442-3.279532.561-4.885 2.993 1.167 5.7 2.134 8.185 2.929-.7272033 1.5100693-1.3020461 3.0888768-1.716 4.713zm4.934-6.412c-.2527585.29516-.6561623.4128849-1.028.3l-.473-.147c-3.057-.938-6.415-2.137-10.253-3.659l-.491-.2c-.41521176-.1796433-.66438544-.609407-.614-1.059.906-9.41 5.451-14.444 9.523-17.1 1.161 4.754 3.6 12.34 8.3 18.534-1.907067.6779849-3.6137498 1.8232227-4.964 3.331zm20.988-1.627c-.1818978.1823539-.4294425.2839661-.687.282h-10.53c-.2575575.0019661-.5051022-.0996461-.687-.282-7.45-7.5-10.321-19.629-11.024-23.168-.0968673-.47390574.1002642-.95963776.5-1.232 1.976-1.298 7.538-4.318 16.476-4.318s14.5 3.02 16.48 4.318c.3997358.27236224.5968673.75809426.5 1.232-.707 3.538-3.58 15.667-11.028 23.168zm9.088 1.633c-1.3502052-1.5136071-3.0592424-2.6635106-4.97-3.344 4.7-6.194 7.142-13.78 8.3-18.534 4.072 2.659 8.617 7.692 9.522 17.1.0545186.4470169-.1888273.8773335-.6 1.061l-.488.2c-3.849 1.527-7.207 2.726-10.286 3.671l-.425.132c-.3766091.1238815-.7908084.0113829-1.053-.286zm7.96 10.649c-1.9 0-2.2-.866-2.873-3.6l-.157-.64c-.4141061-1.623754-.9889446-3.2022149-1.716-4.712 2.5-.8 5.2-1.763 8.185-2.929.3496699 1.6041599.53761 3.239339.561 4.881 0 4.318-1.533 7-4 7z"/><path id="Shape" d="m30 4c-3.479 0-10.521 1.14-14.6 4.2-.2858125.21435935-.4355547.5649147-.3928203.91961524s.2714531.65965882.6.8c.3285469.14034116.7070078.09474416.9928203-.11961524 3.828-2.871 10.681-3.8 13.4-3.8.5522847 0 1-.44771525 1-1s-.4477153-1-1-1z"/></g></g></svg>