<svg height="512" viewBox="0 0 60 46" width="512" xmlns="http://www.w3.org/2000/svg"><g id="Page-1" fill="none" fill-rule="evenodd"><g id="001---Pancakes" fill="rgb(0,0,0)" fill-rule="nonzero"><path id="Shape" d="m59 34h-1.556c.6106276-1.0249573.724876-2.2711155.3107985-3.3900182s-1.3120413-1.9904669-2.4427985-2.3709818c.7929783-1.1593093.9152715-2.6510454.3216934-3.9240252-.5935782-1.2729798-1.8148982-2.138202-3.2126934-2.2759748.7624647-1.2359725.7717229-2.7940538.024-4.039h.555c2.209139 0 4-1.790861 4-4s-1.790861-4-4-4h-2c0-2.209139-1.790861-4-4-4h-10v-3c0-1.65685425-1.3431458-3-3-3h-6c-1.6568542 0-3 1.34314575-3 3v3h-10c-2.209139 0-4 1.790861-4 4h-2c-2.209139 0-4 1.790861-4 4 .00384189.7041609.19542619 1.3945547.555 2h-.555c-1.61696247.0011531-3.07419684.975708-3.6928256 2.4696515-.61862875 1.4939436-.27696333 3.2134069.8658256 4.3573485.64751232.6434283 1.49747935 1.0433297 2.406 1.132-.62308557 1.0252041-.74728054 2.2777712-.33765059 3.4053714.40962996 1.1276003 1.30882376 2.0083949 2.44465059 2.3946286-.86680819 1.2673076-.91755979 2.9229808-.13 4.241h-5.556c-.55228475 0-1 .4477153-1 1v2c.00541052 1.3608637.92616009 2.5476168 2.243 2.891l1.357 4.058c.40786258 1.2231399 1.55165191 2.0488744 2.841 2.051h47.118c1.2911888.000024 2.4375539-.8261162 2.846-2.051l1.352-4.058c1.3168399-.3433832 2.2375895-1.5301363 2.243-2.891v-2c0-.5522847-.4477153-1-1-1zm-8.587-15.413c.5709737.5719529.7416116 1.4313318.4324705 2.1780398s-1.0372997 1.2339804-1.8454705 1.2349602h-20.189c.119644-.3200944.1835685-.6583194.189-1v-3h20c.5305618-.0012405 1.0394935.2101841 1.413.587zm-27.213 3.413h-2.2v-2.893c-.0186864-.5137794.3257765-.9701407.825-1.093.2915144-.0518149.5910032.028217.8178108.2185424s.3576131.4713744.3571892.7674576v1.893c.0006493.3779264.068366.7527384.2 1.107zm29.8-10c1.1045695 0 2 .8954305 2 2s-.8954305 2-2 2h-24v-3c0-.5522847.4477153-1 1-1zm-26-9c0-.55228475.4477153-1 1-1h6c.5522847 0 1 .44771525 1 1v3h-8zm-12 5h32c1.1045695 0 2 .8954305 2 2h-19c-1.6568542 0-3 1.3431458-3 3v8c-.0001438.2934947-.1292132.5721089-.353.762-.2277551.1918607-.5283945.2737868-.822.224-.4992235-.1228593-.8436864-.5792206-.825-1.093v-1.893c.0002827-.8832307-.3886542-1.7217072-1.0631416-2.2919381s-1.5659812-.8142671-2.4368584-.6670619c-1.4658439.2817527-2.5190834 1.5734456-2.5 3.066v3.893c.0004239.2960832-.1303816.5771322-.3571892.7674576s-.5262964.2703573-.8178108.2185424c-.4992235-.1228593-.8436864-.5792206-.825-1.093v-9.893c0-1.6568542-1.3431458-3-3-3h-1c0-1.1045695.8954305-2 2-2zm-7.413 7.413c-.5709737-.5719529-.74161155-1.4313318-.4324705-2.1780398s1.03729968-1.2339804 1.8454705-1.2349602h5c.5522847 0 1 .4477153 1 1v3.0000054l-6-.0000054c-.53056179.0012405-1.03949349-.2101841-1.413-.587zm-4.587 4.587c0-1.1045695.8954305-2 2-2h10v4h-10c-1.1045695 0-2-.8954305-2-2zm3 6c0-1.1045695.8954305-2 2-2h7.2c.4092338 1.2005991 1.5370717 2.007723 2.8055 2.007723s2.3962662-.8071239 2.8055-2.007723h31.189c1.1045695 0 2 .8954305 2 2s-.8954305 2-2 2h-44c-1.1045695 0-2-.8954305-2-2zm2 6c0-1.1045695.8954305-2 2-2h44c1.1045695 0 2 .8954305 2 2s-.8954305 2-2 2h-44c-1.1045695 0-2-.8954305-2-2zm46.507 11.316c-.1359555.4081936-.5177607.6836733-.948.684h-47.118c-.4302393-.0003267-.81204447-.2758064-.948-.684l-1.106-3.316h51.226zm3.493-6.316c0 .5522847-.4477153 1-1 1h-54c-.55228475 0-1-.4477153-1-1v-1h56z"/></g></g></svg>