<svg height="512" viewBox="0 0 60 60" width="512" xmlns="http://www.w3.org/2000/svg"><g id="Page-1" fill="none" fill-rule="evenodd"><g id="019---Tea" fill="rgb(0,0,0)" fill-rule="nonzero"><path id="Shape" d="m51 9c-1.7371042-.01474906-3.4521828.38932346-5 1.178v-1.178c0-1.65685425-1.3431458-3-3-3h-21v-2c0-2.209139-1.790861-4-4-4s-4 1.790861-4 4v2h-11c-1.65685425 0-3 1.34314575-3 3v34c.00828317 5.6347053 3.64049391 10.6245557 9 12.364v2.636c0 1.1045695.8954305 2 2 2h24c1.1045695 0 2-.8954305 2-2v-2.636c5.3595061-1.7394443 8.9917168-6.7292947 9-12.364v-.639c1.2884954.4340623 2.6404012.6500293 4 .639 8.963 0 10-9.7 10-17 0-6.358 0-17-9-17zm-5 9.569c.471-1.033 1.941-3.569 5-3.569 2.509 0 3 4.033 3 11 0 4.108-.52 11-4 11-1.982 0-3.156-.575-4-1.947zm-30-14.569c0-1.1045695.8954305-2 2-2s2 .8954305 2 2v2h-4zm19 54h-24v-2.17c.6613165.1079049 1.3299587.1647394 2 .17h20c.6700413-.0052606 1.3386835-.0620951 2-.17zm9-15c-.0071635 6.0721626-4.9278374 10.9928365-11 11h-20c-6.07216255-.0071635-10.9928365-4.9278374-11-11v-34c0-.55228475.44771525-1 1-1h11v9.17c-.3485004.1240598-.6712044.3111739-.952.552l-5 4.286c-.6657978.5694304-1.04878141 1.4019081-1.048 2.278v15.714c0 1.6568542 1.34314575 3 3 3h10c1.6568542 0 3-1.3431458 3-3v-15.714c.0007814-.8760919-.3822022-1.7085696-1.048-2.278l-5-4.286c-.2807956-.2408261-.6034996-.4279402-.952-.552v-9.17h27c.5522847 0 1 .44771525 1 1zm-29.651-23.759c.3732783-.3226383.9267217-.3226383 1.3 0l5 4.285c.2217655.1901903.3492693.467849.349.76v15.714c0 .5522847-.4477153 1-1 1h-9.998c-.55228475 0-1-.4477153-1-1v-15.714c-.00026934-.292151.12723448-.5698097.349-.76zm35.651 21.759c-1.3743232.0216684-2.7376265-.2482657-4-.792v-2.283c1.1915464.7600456 2.587976 1.1353361 4 1.075 2.737 0 6-2.255 6-13 0-5.792 0-13-5-13-1.8832137-.0187842-3.6912802.7377108-5 2.092v-2.567c1.4721734-1.0062845 3.2168221-1.5384023 5-1.525 6.465 0 7 7.095 7 15 0 13.3-4.275 15-8 15z"/></g></g></svg>