<svg height="512" viewBox="0 0 60 60" width="512" xmlns="http://www.w3.org/2000/svg"><g id="Page-1" fill="none" fill-rule="evenodd"><g id="030---Waffle" fill="rgb(0,0,0)" fill-rule="nonzero"><path id="Shape" d="m30 0c-16.5685425 0-30 13.4314575-30 30s13.4314575 30 30 30 30-13.4314575 30-30c-.018737-16.5607751-13.4392249-29.98126296-30-30zm0 58c-15.463973 0-28-12.536027-28-28s12.536027-28 28-28 28 12.536027 28 28c-.0176345 15.4566626-12.5433374 27.9823655-28 28z"/><path id="Shape" d="m45.6 9.2c-.9886164-.74729332-2.0322499-1.41886915-3.122-2.009-2.5884127-1.42689223-5.4043342-2.39485466-8.323-2.861-2.7544584-.44102335-5.5615416-.44102335-8.316 0-11.5544591 1.87532391-20.43109845 11.2407194-21.68502213 22.87902s5.42407839 22.6795708 16.31390183 26.9730671c10.8898234 4.2934964 23.3061028.7804682 30.3321203-8.5820871.7471572-.988361 1.4187275-2.0316517 2.009-3.121 1.4263201-2.5886664 2.3942475-5.4044858 2.861-8.323.4439938-2.7552277.4439938-5.5637723 0-8.319-.4660015-2.9166987-1.4329166-5.7308344-2.858-8.318-.5915083-1.0886471-1.2640726-2.1312555-2.012-3.119-1.4798099-1.9695595-3.2304405-3.7201901-5.2-5.2zm3.4 6.15v1.65h-6v-6h1.648c1.6302561 1.2595949 3.0927797 2.7224546 4.352 4.353zm4.794 11.65c.1306181.9947799.1994168 1.996703.206 3-.0065832 1.003297-.0753819 2.0052201-.206 3h-2.794v-6zm-4.794 6h-6v-6h6zm0 8h-6v-6h6zm-14 10h6.6c-2.0656968 1.1455223-4.2899079 1.9782535-6.6 2.471zm0-2v-6h6v6zm-10 4.471c-2.3099678-.493172-4.5341175-1.3258802-6.6-2.471h6.6zm-6-4.471v-6h6v6zm-13-19c.00665238-1.0032944.0754508-2.0052132.206-3h2.794v6h-2.794c-.13061811-.9947799-.19941683-1.996703-.206-3zm19-21h-6.6c2.0655043-1.14593932 4.2897792-1.97869433 6.6-2.471zm0 2v6h-6v-6zm2 22v-6h6v6zm6 2v6h-6v-6zm-14-8h6v6h-6zm-2 6h-6v-6h6zm10-8v-6h6v6zm8 2h6v6h-6zm0-2v-6h6v6zm0-8v-6h6v6zm-2 0h-6v-6h6zm-8 2v6h-6v-6zm-8 6h-6v-6h6zm-8 0h-2.471c.49263285-2.3101253 1.32537017-4.5343528 2.471-6.6zm0 10v6.6c-1.14552232-2.0656968-1.97825349-4.2899079-2.471-6.6zm2 0h6v6h-6zm8 0h6v6h-6zm8 8h6v6h-6zm8-2v-6h6v6zm8-16v-6h6v6zm-1.391-16h-6.609v-2.455c2.280791.47283295 4.4787499 1.28164946 6.522 2.4.03.02.058.039.087.055zm-11.609-3c1.0032995.00651639 2.0052267.07531539 3 .206v2.794h-6v-2.794c.9947733-.13068461 1.9967005-.19948361 3-.206zm-14.647 5h1.647v6h-6v-1.647c1.2593068-1.630804 2.722196-3.0936932 4.353-4.353zm-4.353 33.647v-1.647h6v6h-1.648c-1.6302561-1.2595949-3.0927797-2.7224546-4.352-4.353zm16 9.147v-2.794h6v2.794c-1.9923738.2470013-4.0076262.2470013-6 0zm17.647-4.794h-1.647v-6h6v1.647c-1.2593068 1.630804-2.722196 3.0936932-4.353 4.353zm6.4-7.477c-.016.03-.035.057-.051.086v-6.609h2.455c-.4736759 2.2808673-1.2824451 4.4790344-2.4 6.523zm2.408-16.523h-2.455v-6.608c.017.031.037.06.054.091 1.1175642 2.0419391 1.9266689 4.2380803 2.401 6.517z"/></g></g></svg>