<svg height="512" viewBox="0 0 60 60" width="512" xmlns="http://www.w3.org/2000/svg"><g id="Page-1" fill="none" fill-rule="evenodd"><g id="025---Bacon" fill="rgb(0,0,0)" fill-rule="nonzero" transform="translate(-1)"><path id="Shape" d="m48.658 28.157c.7044589-2.0859191 2.3420809-3.7235411 4.428-4.428l.9-.3c2.6834977-.8978018 4.7885022-3.0053991 5.683-5.69l1.182-3.513c.3604456-1.0803554.0762849-2.2716594-.733-3.073l-10.271-10.27c-.7350071-.73457924-1.7978139-1.03647707-2.8092298-.7979817s-1.8273797.98341382-2.1567702 1.9689817l-.539 1.619c-.7047223 2.08553737-2.3423035 3.7227488-4.428 4.427l-.9.3c-2.6881682.90191796-4.798082 3.0118318-5.7 5.7l-.287.882c-.3938276 1.1735998-1.0935406 2.2209255-2.027 3.034-.9309082-.8130921-1.6299289-1.8581727-2.026-3.029l-.3-.9c-.9032923-2.6816691-3.0095381-4.78606469-5.692-5.687l-.9-.3c-2.0875521-.70147468-3.7259968-2.34028954-4.427-4.428l-.54-1.62c-.3292304-.98509147-1.1445798-1.72980216-2.155394-1.96865893-1.0108141-.23885678-2.0732627.06212767-2.808606.79565893l-10.272 10.273c-.80722981.8014045-1.08842887 1.992137-.725 3.07l1.173 3.518c.90115552 2.6840835 3.00791649 4.7908445 5.692 5.692l.9.3c2.0873286.7012677 3.7257323 2.3396714 4.427 4.427l.3.9c.313445.9287047.7772843 1.799628 1.373 2.578-2.0353511 1.0784851-3.5807327 2.8950867-4.319 5.077l-.3.9c-1.15995145 2.4667516-3.20436275 4.4076574-5.728 5.438l-1.62.54c-.98484841.3300152-1.72892172 1.145976-1.96696567 2.157001s.06381437 2.0732485.79796567 2.807999l10.27 10.27c.8011477.8103952 1.9935915 1.0943473 3.074.732l3.51-1.171c2.532-.847 6.06-3.893 6.992-6.7l.3-.9c.7043572-2.0878252 2.3438571-3.7265852 4.432-4.43l.539-.181.545.181c2.0870761.7016751 3.7253249 2.3399239 4.427 4.427l.3.9c.938 2.814 4.465 5.86 6.992 6.7l3.517 1.172c.3081931.1031163.631014.1557942.956.156.7939563-.0004862 1.5550295-.3171502 2.115-.88l10.268-10.274c.7355327-.7350948 1.0379279-1.7986648.7991616-2.8107732s-.9846352-1.8283826-1.9711616-2.1572268l-1.621-.54c-2.222-.74-5.058-3.434-5.727-5.437l-.3-.9c-.7380601-2.1837118-2.2827662-4.0028017-4.318-5.085.5942482-.7794245 1.0588823-1.6496005 1.376-2.577zm10.294-14.566-1.181 3.515c-.6952264 2.0871133-2.3311481 3.725998-4.417 4.425l-.9.3c-2.6813496.9052125-4.7862586 3.0104914-5.691 5.692l-.3.9c-.3035905.8922548-.782663 1.7147361-1.409 2.419l-.339-.113c-.5784994-.1962012-1.1285805-.4678794-1.636-.808 1.1059623-1.0212067 1.9353953-2.3057787 2.411-3.734l.3-.9c.7039258-2.0828694 2.3374072-3.719308 4.419-4.427l.91-.294c2.6817499-.9058371 4.7871629-3.0112501 5.693-5.693l1.048-3.153.845.845c.270779.267182.3665159.6648582.247 1.026zm-8.834-9.609 6.158 6.158-1.364 4.1c-.7024422 2.0835708-2.3365437 3.7202608-4.419 4.426l-.91.294c-2.6808948.9062965-4.7857035 3.0111052-5.692 5.692l-.3.9c-.3931192 1.1667428-1.0912607 2.2070497-2.022 3.013-.5663069-.6674255-1.0012834-1.4359291-1.282-2.265l-.3-.9c-.6287546-1.8591424-1.8462135-3.4627618-3.468-4.568.5242796-.7305623.937744-1.5345769 1.227-2.386l.3-.892c.6997896-2.0893833 2.3396167-3.7292104 4.429-4.429l.9-.3c2.6822893-.9046164 4.7878548-3.01055178 5.692-5.693zm-15.187 11.628.287-.882c.7016178-2.0876813 2.3403187-3.7263822 4.428-4.428l.9-.3c2.6815086-.90474141 4.7867875-3.00965045 5.692-5.691l.54-1.621c.110396-.32801571.3825518-.57562884.7195104-.65462577.3369585-.07899693.6908088.02185465.9354896.26662577l.1.1-1.361 4.1c-.7040606 2.08638454-2.3417745 3.7244682-4.428 4.429l-.9.3c-2.684524.8996602-4.7919249 3.0059506-5.693 5.69l-.3.889c-.2525147.7510103-.6290593 1.4544118-1.114 2.081-.148-.059-.291-.127-.443-.178l-.9-.3c-.2258098-.0770558-.4474445-.1658432-.664-.266.9999281-.9900666 1.7537715-2.2008056 2.201-3.535zm-22-8.476c.9016993 2.68374658 3.0082534 4.7903007 5.692 5.692l.9.3c2.0876656.7007238 3.7262762 2.3393344 4.427 4.427l.3.895c.9017065 2.6839601 3.0081984 4.790822 5.692 5.693l.895.3c2.0877105.7010032 3.7265253 2.3394479 4.428 4.427l.3.9c.9016281 2.683439 3.0077194 4.7899004 5.691 5.692l.9.3c2.0873286.7012677 3.7257323 2.3396714 4.427 4.427l.3.895c.937 2.815 4.464 5.861 6.991 6.7l3.155 1.052-6.157 6.157-4.1-1.367c-2.223-.742-5.059-3.435-5.727-5.438l-.3-.9c-.9016993-2.6837466-3.0082534-4.7903007-5.692-5.692l-.9-.3c-2.0871894-.7009248-3.7256037-2.338969-4.427-4.426l-.3-.9c-.902178-2.6838016-3.0090399-4.7902935-5.693-5.692l-.9-.3c-2.0878049-.7010667-3.7264049-2.3400368-4.427-4.428l-.3-.895c-.9016993-2.6837466-3.0082534-4.7903007-5.692-5.692l-.9-.3c-2.08407992-.7013461-3.72018253-2.3370788-4.422-4.421l-1.368-4.1 6.157-6.158zm-9.9 39.072c.07642079-.3382246.32588511-.610886.656-.717l1.621-.541c2.523-.844 6.049-3.889 6.991-6.7l.3-.9c.6355821-1.8844013 2.0405966-3.4108009 3.866-4.2.5331722.439319 1.1153752.8154859 1.735 1.121-2.2061264 1.0536551-3.8905284 2.9570871-4.668 5.275l-.3.9c-.67 2-3.508 4.7-5.728 5.439l-4.104 1.363-.1-.1c-.24946585-.2437887-.35173102-.6011465-.269-.94zm16.828-10.458.9-.3c.081-.028.158-.06.238-.089 1.7275592.818701 3.0477435 2.3049463 3.657 4.117l.3.9c.2037171.6040601.471932 1.18441.8 1.731-2.1302445 1.0650301-3.7492873 2.9337653-4.5 5.194l-.286.89c-.67 2-3.508 4.7-5.727 5.438l-4.1 1.365-6.159-6.166 3.155-1.05c2.524-.845 6.051-3.89 6.992-6.7l.3-.9c.7002771-2.089651 2.340349-3.7297229 4.43-4.43zm4.272 14.406-.3.9c-.651 1.961-3.542 4.7-5.727 5.436l-3.51 1.17c-.3616267.119681-.7598406.0235203-1.027-.248l-.845-.845 3.155-1.05c2.524-.845 6.051-3.89 6.995-6.711l.286-.89c.6257552-1.877543 2.0194384-3.4009979 3.834-4.191.466864.4894671.9867274.9254815 1.55 1.3-2.0772105 1.0762689-3.6577643 2.9140972-4.411 5.129zm23.279 7.5-3.517-1.173c-2.223-.74-5.06-3.434-5.728-5.437l-.3-.9c-.9016993-2.6837466-3.0082534-4.7903007-5.692-5.692l-.9-.3c-2.087031-.7013963-3.7250752-2.3398106-4.426-4.427l-.3-.9c-.9016993-2.6837466-3.0082534-4.7903007-5.692-5.692l-.9-.3c-2.0873286-.7012677-3.7257323-2.3396714-4.427-4.427l-.3-.9c-.9023782-2.6833258-3.0086742-4.7896218-5.692-5.692l-.9-.3c-2.08755208-.7014747-3.72599684-2.3402895-4.427-4.428l-1.158-3.496c-.11994691-.3596111-.0262388-.7561281.242-1.024l.849-.849 1.052 3.156c.90209955 2.6832806 3.00856098 4.7893719 5.692 5.691l.9.3c2.0871702.7017391 3.7252039 2.340513 4.426 4.428l.3.895c.9009996 2.6825555 3.00592 4.788586 5.688 5.691l.895.3c2.086762.6996961 3.725475 2.3361887 4.428 4.422l.3.9c.9016993 2.6837466 3.0082534 4.7903007 5.692 5.692l.9.3c2.0874971.7009958 3.7260042 2.3395029 4.427 4.427l.3.9c.937 2.815 4.465 5.86 6.991 6.7l3.156 1.052-.849.849c-.2696961.2695092-.669179.3622048-1.03.239zm1.99-20.303.3.9c.939 2.815 4.466 5.859 6.991 6.7l1.621.54c.3288956.1095363.577601.3815938.6572601.7189733.079659.3373795-.0210931.6919479-.2662601.9370267l-.1.1-4.103-1.367c-2.223-.741-5.06-3.435-5.728-5.438l-.3-.9c-.9016993-2.6837466-3.0082534-4.7903007-5.692-5.692l-.9-.3c-2.0873286-.7012677-3.7257323-2.3396714-4.427-4.427l-.3-.9c-.9024424-2.6834198-3.0092633-4.7895005-5.693-5.691l-.895-.3c-2.0879736-.7007945-3.7266771-2.3398682-4.427-4.428l-.3-.895c-.9023782-2.6833258-3.0086742-4.7896218-5.692-5.692l-.9-.3c-2.0806831-.7020932-3.7138492-2.33599911-4.415-4.417l-1.369-4.1.1-.1c.245193-.24562937.6002113-.34656158.9379528-.26666135.3377415.07990022.6099033.32920575.7190472.65866135l.54 1.62c.9039208 2.68255268 3.0113376 4.78737917 5.695 5.688l.9.3c2.0873286.7012677 3.7257323 2.3396714 4.427 4.427l.3.9c.9016993 2.6837466 3.0082534 4.7903007 5.692 5.692l.9.3c2.0868626.7016679 3.7248035 2.3399789 4.426 4.427l.3.9c.902178 2.6838016 3.0090399 4.7902935 5.693 5.692l.895.3c2.0786936.7023293 3.7106707 2.3343064 4.413 4.413z"/></g></g></svg>