<svg height="512" viewBox="0 0 60 60" width="512" xmlns="http://www.w3.org/2000/svg"><g id="Page-1" fill="none" fill-rule="evenodd"><g id="002---Eggs-and-Bacon" fill="rgb(0,0,0)" fill-rule="nonzero"><path id="Shape" d="m30 0c-16.5685425 0-30 13.4314575-30 30s13.4314575 30 30 30 30-13.4314575 30-30c-.018737-16.5607751-13.4392249-29.98126296-30-30zm0 58c-15.463973 0-28-12.536027-28-28s12.536027-28 28-28 28 12.536027 28 28c-.0176345 15.4566626-12.5433374 27.9823655-28 28z"/><path id="Shape" d="m30 4c-14.3594035 0-26 11.6405965-26 26s11.6405965 26 26 26 26-11.6405965 26-26c-.016532-14.3525501-11.6474499-25.98346796-26-26zm5.648 19.332 2.1 2.13-1.424 1.4c-1.5000564 1.4984712-2.7565676 3.2222939-3.724 5.109-.8721911 1.7186748-2.0083041 3.2900671-3.367 4.657-1.4172798 1.3593715-3.0322582 2.4962623-4.79 3.372-1.9187218.9620817-3.6817854 2.2073507-5.23 3.694-.646.628-1.1 1.076-1.438 1.4l-2.1-2.135 1.425-1.406c1.4214335-1.358044 3.0396497-2.4938294 4.8-3.369 1.9204685-.9633707 3.6865541-2.2077196 5.24-3.692 1.2085129-1.1949165 2.2484274-2.5490595 3.091-4.025 2.745849-1.4908333 4.7188267-4.0895403 5.417-7.135zm-6.711 21.968.437-.241c.917-.157 1.779-.237 2.684-.316 2.1520401-.1038542 4.2760254-.5323598 6.3-1.271 1.9668106-.7701864 3.8025459-1.8401887 5.442-3.172 1.49037-1.2229806 3.1633754-2.2045806 4.958-2.909l1.878-.709 1.064 2.8-1.87.711c-1.969038.7711825-3.8062883 1.8436428-5.446 3.179-1.4917229 1.2249891-3.1673066 2.2070533-4.965 2.91-1.8498087.6748313-3.7911586 1.0655962-5.758 1.159-2.1420053.1086863-4.2557143.5370908-6.271 1.271l-1.87.711-.568-1.5c1.2289656-1.0166869 2.5652083-1.8962262 3.985-2.623zm19.108-9.788c-1.9724087.7725944-3.8122003 1.848196-5.453 3.188-1.4877061 1.2202182-3.1563668 2.2013071-4.946 2.908-1.4903303.5594893-3.050693.9107981-4.637 1.044.373-.31.753-.646 1.141-1.025.8652725-.846457 1.6394971-1.7812243 2.31-2.789.038-.014.078-.026.114-.04 1.9769558-.7707379 3.821491-1.8453391 5.467-3.185 1.4858636-1.2171162 3.1521483-2.1954976 4.939-2.9l1.875-.7 1.066 2.8zm-13.066 1.946c-.6354433.9940319-1.3826456 1.9120138-2.227 2.736-1.2490309 1.2048469-2.6632168 2.2257545-4.2 3.032-.0219937.0122464-.0433543.0255968-.064.04l-.516.284c-1.7675761.8919392-3.4094691 2.0136584-4.883 3.336-.0280908.025939-.0544789.0536633-.079.083-.1.095-.206.191-.3.289l-1.425 1.4-2.1-2.137c.328-.323.786-.771 1.433-1.4 1.4203969-1.3598462 3.038795-2.4964338 4.8-3.371 1.9205247-.9635759 3.6849787-2.2108972 5.234-3.7 1.4932761-1.4974169 2.7445648-3.217981 3.709-5.1.8729322-1.7197944 2.010825-3.2916523 3.372-4.658l1.425-1.405 2.1 2.138-1.433 1.4c-1.488597 1.501203-2.7366167 3.2231328-3.7 5.105-.379.662-.725 1.284-1.146 1.928zm-10.619-6.689c-7.864 2.257-10.695 1.089-11.682.191-.8629584-.9152575-1.1683776-2.2232151-.8-3.426.2855301-1.38589.8282284-2.7060038 1.6-3.892 1.3351542-1.9568342 1.9371497-4.3219686 1.7-6.679-.41-4.99 1.714-7.978 6.685-9.405 3.243-.932 5.911-.695 7.929.7 3.271 2.261 3.886 6.816 4 8.159l.04.479c.426 5.104.916 10.892-9.472 13.873zm5.64 23.231c-9.841052.0072767-18.687812-5.9980325-22.31360745-15.146801-3.62579548-9.1487685-1.29468538-19.5840369 5.87960745-26.320199-.4041835 1.4956151-.5339474 3.0521038-.383 4.594.1967657 1.9510677-.3139126 3.907899-1.439 5.514-.8846881 1.3830732-1.5058111 2.9179116-1.832 4.527-.51205605 1.8850022.03097441 3.8996796 1.421 5.272 1.5414214 1.2012153 3.4755055 1.7842219 5.424 1.635 2.7684837-.0889362 5.5119883-.5542049 8.155-1.383.6-.171 1.154-.356 1.689-.546-.261.3-.544.607-.861.92-1.4226544 1.355474-3.0406729 2.4897723-4.8 3.365-1.9220161.9641048-3.6883742 2.2113424-5.24 3.7l-1.426 1.406c-.382489.3703182-.5989047.8796165-.6 1.412-.0041392.5290795.2015394 1.0382419.572 1.416l5.606 5.7c.374493.3848202.8890364.6013181 1.426.6.5277467.0003398 1.0346272-.206074 1.412-.575l.682-.672.275.725c.2980224.7698772 1.0384528 1.2775328 1.864 1.278.2430313-.0002708.4840917-.0436075.712-.128l1.87-.71c1.8443229-.6682285 3.7785807-1.055552 5.738-1.149 2.1493377-.1086622 4.270085-.5401606 6.291-1.28 1.9743761-.7701298 3.8162662-1.8440877 5.459-3.183 1.4888902-1.2216824 3.1597638-2.202882 4.952-2.908l.261-.1c-4.2808124 7.4414151-12.209131 12.0308722-20.794 12.037zm22.928-16.9-2.2-5.807c-.3928374-1.028848-1.5435131-1.5465179-2.574-1.158l-1.875.7c-1.9652098.7718863-3.7989606 1.8435983-5.436 3.177-.8176627.6375446-1.672504 1.2259159-2.56 1.762.7857872-1.4418607 1.7767948-2.761969 2.942-3.919l1.438-1.408c.7782892-.7757139.7849872-2.0340447.015-2.818l-5.616-5.716c-.3017553-.3004505-.6918087-.4963533-1.113-.559.0844276-1.5431636.0426219-3.0906457-.125-4.627l-.04-.475c-.128-1.564-.859-6.881-4.852-9.64-.3297263-.22716243-.6745221-.43163434-1.032-.612h.1c7.624426-.00071489 14.795604 3.62136994 19.3199677 9.7583078 4.5243637 6.1369378 5.8635917 14.0585387 3.6080323 21.3416922z"/><path id="Shape" d="m23.346 12.234c-3.1849338.9144284-5.0256026 4.2375553-4.1113138 7.4225293.9142887 3.1849739 4.2373349 5.0257884 7.4223489 4.1116393 3.1850141-.914149 5.0259743-4.2371145 4.1119649-7.4221686-.9173901-3.1828475-4.2381438-5.022392-7.423-4.112zm2.754 9.612c-2.1239521.6073514-4.3381209-.6220501-4.9455482-2.7459805s.621895-4.3381431 2.7458037-4.9456464c2.1239087-.6075032 4.3381653.6217399 4.9457445 2.7456269.2917976 1.0200237.1664112 2.1141882-.3485722 3.0417584-.5149833.9275701-1.3773728 1.6125534-2.3974278 1.9042416z"/></g></g></svg>